<svg width="53" height="56" viewBox="0 0 53 56" fill="none" xmlns="http://www.w3.org/2000/svg">
<path d="M52.28 56V0.188311H0V56H52.28Z" fill="#ED1C24"/>
<path d="M34.5087 14.1027C34.4715 6.21791 29.4565 2.31178 29.4565 2.31178L26.0488 4.37903L22.7185 2.31178C20.1545 4.68737 17.5132 9.08775 17.7035 14.2566C10.1673 11.939 4.65087 15.3482 4.65087 15.3482L5.62704 19.1656L2.55835 21.5299C4.05796 24.6869 7.47127 28.5215 12.4598 29.8824L12.5744 29.9018C7.92912 36.2738 9.56085 42.3052 9.56085 42.3052L13.4357 42.6497L14.9867 46.2671C18.4583 45.8776 23.1864 43.9104 26.0975 39.6348L26.1976 39.7348C30.1454 45.4063 37.2829 46.4419 37.2829 46.4419L38.8131 42.7631L42.7219 42.4666C43.391 39.0381 42.925 33.9251 39.7208 29.8651L39.8487 29.8209C47.3028 27.2452 49.5908 21.4045 49.5908 21.4045L46.5366 18.8442L47.4214 15.0267C44.3487 13.3634 39.3302 12.2797 34.499 14.1259" fill="white"/>
<path d="M10.9384 49.5489H12.3069C12.3069 49.5489 12.3165 48.0183 10.9285 47.6738C9.47165 47.3121 8.25466 47.5045 7.57903 48.0956C6.74643 48.8216 6.35769 50.4498 8.02459 51.1776C8.58381 51.4204 9.51779 51.5358 10.3779 51.8515C11.0837 52.1093 11.1395 52.4112 11.053 52.8564C11.0095 53.0838 10.6804 53.403 10.2778 53.5296C9.78718 53.6876 9.10574 53.6573 8.67052 53.3781C8.08144 52.9986 8.11496 52.3055 8.11496 52.3055H6.68024C6.68024 52.3055 6.64559 54.0461 8.19229 54.4697C9.03442 54.6985 10.149 54.739 11.1203 54.3539C12.2163 53.9191 12.6012 53.2798 12.5031 52.1518C12.4648 51.7128 12.0867 51.2047 11.6562 50.9891C11.2396 50.781 10.3165 50.5078 9.60792 50.3153C8.89953 50.1245 8.11496 49.8994 8.41168 49.0101C8.52721 48.6634 9.03442 48.4787 9.26342 48.4596C9.49341 48.4403 10.2618 48.3979 10.5842 48.669C11.0633 49.0717 10.9384 49.5489 10.9384 49.5489Z" fill="white"/>
<path d="M14.8682 51.8859L16.0366 48.7134L17.2051 51.8859H14.8682ZM18.1782 54.5271H19.5373L16.8757 47.6161H16.4412H15.6314H15.1974L12.5352 54.5271H13.8941L14.4588 52.9952H17.6142L18.1782 54.5271Z" fill="white"/>
<path d="M41.5148 51.8859L42.6835 48.7134L43.8517 51.8859H41.5148ZM44.8263 54.5271H46.1855L43.5239 47.6161H43.0886H42.2795H41.8442L39.1826 54.5271H40.5421L41.1059 52.9952H44.2623L44.8263 54.5271Z" fill="white"/>
<path d="M20.2112 47.5585V54.5271H21.6666V47.5585H20.2112Z" fill="white"/>
<path d="M23.2928 50.8117L25.8757 47.5585H24.2105L21.6665 50.8502L24.325 54.5271H26.1624L23.2928 50.8117Z" fill="white"/>
<path d="M26.2986 47.5968H27.8107C27.8107 47.5968 27.8107 51.4453 27.8107 52.2481C27.8107 53.0525 28.5758 53.6071 29.3989 53.6071C30.0303 53.6071 30.8534 53.2066 30.8534 52.1901C30.8534 51.1776 30.8534 47.5585 30.8534 47.5585H32.3062C32.3062 47.5585 32.3062 50.7754 32.3062 52.0188C32.3062 53.2628 31.4278 54.6601 29.3797 54.6601C27.3316 54.6601 26.3178 53.5296 26.3178 52.0379C26.3178 50.5462 26.2986 47.5968 26.2986 47.5968Z" fill="white"/>
<path d="M34.5277 48.5749V50.6406C34.5277 50.6406 35.6954 50.6406 36.0013 50.6406C36.3073 50.6406 37.1123 50.4689 37.1123 49.5489C37.1123 48.8597 36.5571 48.5749 36.0013 48.5749H34.5277ZM33.1486 47.5585C33.1486 47.5585 35.4844 47.5585 36.4026 47.5585C37.3801 47.5585 38.5474 48.1052 38.5569 49.4546C38.565 50.6023 37.8014 51.1008 37.2847 51.1008C37.2847 51.1008 37.7352 51.1064 37.9737 51.3872C38.2701 51.7358 38.3995 52.0825 38.4717 52.6502C38.5186 53.0296 38.661 54.5271 38.661 54.5271H37.1874C37.1874 54.5271 36.94 52.6885 36.9018 52.3247C36.863 51.961 36.5378 51.655 36.2311 51.655C35.9256 51.655 34.5277 51.655 34.5277 51.655V54.5271H33.1311L33.1486 47.5585Z" fill="white"/>
<path d="M26.0975 27.8245C27.3754 27.8245 28.4109 26.7888 28.4109 25.5105C28.4109 24.2325 27.3754 23.1949 26.0975 23.1949C24.819 23.1949 23.7834 24.2325 23.7834 25.5105C23.7834 26.7888 24.819 27.8245 26.0975 27.8245ZM38.0692 28.6966C38.0692 29.6556 37.2924 30.433 36.3338 30.433C35.3749 30.433 34.5973 29.6556 34.5973 28.6966C34.5973 28.6814 34.5984 28.6637 34.5993 28.6485L28.8937 26.8022C28.7469 27.1179 28.5478 27.4069 28.3068 27.6553L31.9878 32.3659C32.1369 32.3236 32.295 32.3004 32.4578 32.3004C33.416 32.3004 34.1932 33.078 34.1932 34.0369C34.1932 34.9954 33.416 35.773 32.4578 35.773C31.4992 35.773 30.722 34.9954 30.722 34.0369C30.722 33.5247 30.9458 33.0627 31.2997 32.7433L27.7029 28.1385C27.3513 28.3541 26.9529 28.5004 26.5273 28.5601V34.4256C27.2717 34.622 27.8203 35.2996 27.8203 36.1041C27.8203 37.0631 27.0426 37.8407 26.0836 37.8407C25.1249 37.8407 24.3483 37.0631 24.3483 36.1041C24.3483 35.2593 24.9526 34.5548 25.7528 34.4008V28.5714C25.343 28.5253 24.9594 28.4004 24.6152 28.2114L21.0522 33.0224C21.2992 33.3224 21.4465 33.7058 21.4465 34.1234C21.4465 35.0823 20.6693 35.8579 19.711 35.8579C18.7524 35.8579 17.9744 35.0823 17.9744 34.1234C17.9744 33.1647 18.7524 32.3869 19.711 32.3869C19.9707 32.3869 20.2181 32.4449 20.4395 32.5469L23.9884 27.7535C23.7119 27.4954 23.483 27.1854 23.3174 26.8388L17.5691 28.7158C17.5691 28.7371 17.5702 28.7601 17.5702 28.7835C17.5702 29.7419 16.7937 30.5176 15.8345 30.5176C14.8759 30.5176 14.0996 29.7419 14.0996 28.7835C14.0996 27.8245 14.8759 27.0469 15.8345 27.0469C16.4977 27.0469 17.0737 27.4186 17.366 27.9651L23.0748 26.1035C23.0373 25.9111 23.0169 25.7128 23.0169 25.5105C23.0169 25.3083 23.0364 25.1103 23.074 24.9196L17.4703 23.1064C17.1842 23.6722 16.5976 24.0592 15.9204 24.0592C14.9629 24.0592 14.1844 23.2812 14.1844 22.3247C14.1844 21.366 14.9629 20.5884 15.9204 20.5884C16.879 20.5884 17.6569 21.366 17.6569 22.3247C17.6569 22.3322 17.6558 22.3419 17.6558 22.3516L23.3174 24.1825C23.4713 23.8588 23.6824 23.5665 23.9354 23.3179L20.2903 18.6517C20.137 18.6941 19.9767 18.7189 19.8099 18.7189C18.8512 18.7189 18.0734 17.9434 18.0734 16.9844C18.0734 16.0258 18.8512 15.2481 19.8099 15.2481C20.7684 15.2481 21.5458 16.0258 21.5458 16.9844C21.5458 17.4926 21.3259 17.9509 20.9751 18.2706L24.5513 22.8464C24.9115 22.6366 25.3184 22.498 25.7528 22.45V16.6205C24.9526 16.4649 24.3483 15.7621 24.3483 14.9172C24.3483 13.9582 25.1249 13.1807 26.0836 13.1807C27.0426 13.1807 27.8203 13.9582 27.8203 14.9172C27.8203 15.7216 27.2717 16.3995 26.5273 16.5957V22.4595C26.9238 22.5153 27.2943 22.6462 27.6275 22.8368L31.0926 18.1568C30.8087 17.847 30.6354 17.435 30.6354 16.9844C30.6354 16.0258 31.4134 15.2481 32.3719 15.2481C33.3295 15.2481 34.1077 16.0258 34.1077 16.9844C34.1077 17.9434 33.3295 18.7189 32.3719 18.7189C32.145 18.7189 31.9292 18.675 31.7309 18.5978L28.2466 23.3045C28.5114 23.5628 28.7296 23.8685 28.8889 24.2073L34.6014 22.3419C34.5993 22.3075 34.5973 22.2728 34.5973 22.236C34.5973 21.2795 35.3749 20.5017 36.3338 20.5017C37.2924 20.5017 38.0692 21.2795 38.0692 22.236C38.0692 23.1949 37.2924 23.9725 36.3338 23.9725C35.6832 23.9725 35.117 23.6145 34.8195 23.087L29.1242 24.9445C29.1589 25.1277 29.1774 25.3163 29.1774 25.5105C29.1774 25.6993 29.1598 25.8821 29.127 26.063L34.7936 27.8961C35.0832 27.3414 35.6635 26.9606 36.3338 26.9606C37.2924 26.9606 38.0692 27.7379 38.0692 28.6966Z" fill="#ED1C24"/>
<path d="M46.6878 48.8955V48.3901H47.0245C47.1968 48.3901 47.3807 48.4266 47.3807 48.6289C47.3807 48.88 47.1928 48.8955 46.9841 48.8955H46.6878ZM46.6878 49.1044H46.9727L47.4031 49.8128H47.6803L47.2155 49.0937C47.4557 49.0638 47.6396 48.9368 47.6396 48.6443C47.6396 48.3229 47.4482 48.1805 47.0623 48.1805H46.4404V49.8128H46.6878V49.1044ZM46.987 50.4125C47.7589 50.4125 48.4186 49.8128 48.4186 48.9926C48.4186 48.1805 47.7589 47.5805 46.987 47.5805C46.2087 47.5805 45.5491 48.1805 45.5491 48.9926C45.5491 49.8128 46.2087 50.4125 46.987 50.4125ZM45.8339 48.9926C45.8339 48.3229 46.3391 47.8164 46.987 47.8164C47.628 47.8164 48.1332 48.3229 48.1332 48.9926C48.1332 49.674 47.628 50.1766 46.987 50.1766C46.3391 50.1766 45.8339 49.674 45.8339 48.9926Z" fill="white"/>
</svg>
